<svg xmlns="http://www.w3.org/2000/svg" aria-hidden="true" style="position:absolute;width:0;height:0;overflow:hidden">
  <defs>
    <symbol id="icon-icon11" viewBox="0 0 30 32">
      <path fill="#2e2f42" d="m29.773 22.098-8.443-8.505.937-4.615c.242.094.499.143.759.145h.032a2.16 2.16 0 1 0-2.029-1.42l-.005-.015-4.96.605L7.973.16A.53.53 0 0 0 7.597 0a.536.536 0 0 0-.373.155L5.711 1.659a.53.53 0 0 0 0 .754l.814.825C5.382 5.3 4.709 7.76 4.709 10.377c0 4.106 1.656 7.825 4.336 10.526l-.001-.001A.506.506 0 0 0 9.19 21a2.986 2.986 0 0 0-.052.546v6.188h-6.4A2.669 2.669 0 0 0 .071 30.4v1.067c.001.295.24.533.534.533h24.534a.535.535 0 0 0 .534-.534v-1.067a2.67 2.67 0 0 0-2.667-2.666h-6.4v-2.742a14.784 14.784 0 0 0 10.166-1.502l-.077.039.819.823a.534.534 0 0 0 .377.16.532.532 0 0 0 .373-.155l1.512-1.505a.535.535 0 0 0 0-.754zM22.28 6.233a1.067 1.067 0 1 1 .752 1.822h-.003a1.066 1.066 0 0 1-.746-1.822h-.002zm-1.256 3.505-.599 2.945-1.175-1.182 1.774-1.764zm-.605-.902-1.92 1.909-1.485-1.493 3.405-.415zM23.004 28.8a1.6 1.6 0 0 1 1.6 1.6v.534H1.138V30.4a1.6 1.6 0 0 1 1.6-1.6h20.267zm-7.467-2.134v1.067h-5.333v-1.067h5.334zM10.204 25.6v-4.053c0-1.294 1.197-2.346 2.666-2.346s2.667 1.053 2.667 2.346V25.6h-5.333zm6.4-1.696v-2.357c0-1.882-1.675-3.413-3.733-3.413h-.059c-1.353 0-2.54.707-3.213 1.771l-.009.016a13.816 13.816 0 0 1-3.811-9.549c0-2.314.567-4.496 1.569-6.414l-.036.077 18.602 18.709c-1.823.947-3.98 1.502-6.266 1.502-1.079 0-2.128-.124-3.136-.357l.093.018zm11.289-.683L6.836 2.041l.755-.752 7.935 7.98c.004 0 .005.007.009.009l13.114 13.191-.757.752z" style="fill:var(--color1, #2e2f42)"/>
      <path fill="#4d5ae5" d="M12.876 20.267h-.007a1.6 1.6 0 0 0-.003 3.2h.007a1.6 1.6 0 0 0 .003-3.2zm.373 1.978a.534.534 0 0 1-.91-.379v-.002a.533.533 0 0 1 .53-.53.535.535 0 0 1 .374.912h.005z" style="fill:var(--color2, #4d5ae5)"/>
    </symbol>
    <symbol id="icon-icon12" viewBox="0 0 32 32">
      <path fill="#2e2f42" d="M31.297 15.301C31.295 6.849 24.442-.002 15.989 0S.686 6.855.688 15.308C.69 22.096 5.11 27.851 11.229 29.853l.108.031a.67.67 0 0 0 .529-.064.642.642 0 0 0 .284-.357l3.865-12.25a1.913 1.913 0 1 0-.851-3.63l.011-.005-5.106-5.107a.637.637 0 1 0-.902.902l5.104 5.109a1.873 1.873 0 0 0 .532 2.306l.004.003-3.683 11.673C3.846 25.783.119 17.71 2.801 10.432 5.482 3.155 13.556-.573 20.833 2.109s11.004 10.755 8.323 18.032c-1.345 3.581-4.004 6.406-7.374 7.938l-.088.036-.398-1.875a.638.638 0 0 0-1.049-.343l.001-.001-3.837 3.425a.639.639 0 0 0 .227 1.084l.005.001 4.899 1.564a.637.637 0 0 0 .818-.743l.001.004-.391-1.839c5.528-2.374 9.329-7.772 9.329-14.057v-.034.002zm-15.305-.637a.638.638 0 0 1 0 1.276.638.638 0 0 1 0-1.276zm2.101 14.863 2.184-1.948.603 2.84-2.787-.892z" style="fill:var(--color1, #2e2f42)"/>
      <path fill="#4d5ae5" d="M15.354 3.185V4.46a.638.638 0 1 0 1.275 0V3.185a.639.639 0 0 0-1.274-.002v.001zM3.876 14.664a.637.637 0 1 0 .001 1.274h1.275a.638.638 0 1 0 0-1.274H3.877zm24.232 1.275a.637.637 0 1 0 0-1.274h-1.275a.639.639 0 0 0-.002 1.274H28.107z" style="fill:var(--color2, #4d5ae5)"/>
    </symbol>
    <symbol id="icon-icon13" viewBox="0 0 32 32">
      <path fill="#4d5ae5" d="M14.925 14.965h1.066v4.797h-1.066v-4.797zm4.265 2.132h1.066v2.665H19.19v-2.665zm-8.529 1.599h1.066v1.066h-1.066v-1.066zm-3.198-.533h1.066v1.599H7.463v-1.599z" style="fill:var(--color2, #4d5ae5)"/>
      <path fill="#2e2f42" d="M1.599 28.291h25.587a1.6 1.6 0 0 0 1.599-1.599v-2.133a1.6 1.6 0 0 0-1.599-1.599h-.534V9.667l3.028-2.868a1.608 1.608 0 1 0-.742-.753l-.004-.01-2.282 2.163v-1.23a1.6 1.6 0 0 0-1.599-1.599H3.73a1.6 1.6 0 0 0-1.599 1.599V22.961h-.533A1.6 1.6 0 0 0-.001 24.56v2.134a1.6 1.6 0 0 0 1.599 1.599zM30.384 4.837a.533.533 0 0 1 0 1.066.533.533 0 0 1 0-1.066zM3.199 6.969c0-.295.239-.534.533-.534h21.322c.294 0 .533.239.533.534v2.238l-1.066 1.013V8.035a.532.532 0 0 0-.533-.533H4.798a.533.533 0 0 0-.533.533v13.326c0 .295.239.534.533.534h19.19a.534.534 0 0 0 .533-.534v-9.674l1.066-1.01V22.96H3.199V6.969zm4.797 6.93h-.005a1.6 1.6 0 1 0 1.112 2.748l1.853.93a.532.532 0 0 0 .636-.123l3.938-4.431 3.872 2.902a.532.532 0 0 0 .686-.04l3.365-3.188v8.131H5.33V8.568h18.124v2.66L19.682 14.8l-3.905-2.928a.531.531 0 0 0-.717.072v.001l-3.993 4.493-1.493-.746c.011-.064.018-.129.021-.194a1.6 1.6 0 0 0-1.599-1.599zm.533 1.599a.533.533 0 0 1-1.066 0 .533.533 0 0 1 1.066 0zm3.198 8.528h5.331v.533a.533.533 0 0 1-.533.533h-4.264a.533.533 0 0 1-.533-.533v-.533zm-10.661.534c0-.294.239-.533.533-.533h9.062v.533a1.6 1.6 0 0 0 1.599 1.599h4.265a1.6 1.6 0 0 0 1.599-1.599v-.534h9.061c.295 0 .534.238.534.533v2.133a.534.534 0 0 1-.534.533H1.599a.533.533 0 0 1-.533-.533v-2.133z" style="fill:var(--color1, #2e2f42)"/>
    </symbol>
    <symbol id="icon-icon14" viewBox="0 0 32 32">
      <path fill="#4d5ae5" d="M31.974 4.524a.535.535 0 0 0-.427-.362h-.003l-1.911-.278-.855-1.731c-.179-.365-.776-.365-.956 0l-.855 1.731-1.91.278a.534.534 0 0 0-.296.909l1.383 1.348-.326 1.903a.533.533 0 0 0 .774.561l1.709-.899 1.709.899a.534.534 0 0 0 .773-.565v.003l-.326-1.903L31.84 5.07a.535.535 0 0 0 .134-.55l.001.004zm-2.463 1.327a.534.534 0 0 0-.153.472l.191 1.114-1-.526a.524.524 0 0 0-.499.001l.003-.001-1 .526.191-1.114a.53.53 0 0 0-.153-.472l-.81-.79 1.119-.162a.533.533 0 0 0 .401-.292l.5-1.013.501 1.013a.535.535 0 0 0 .402.292l1.119.162-.809.79zm-3.377 14.671h-1.067v1.067h1.067v-1.067zm0 2.133h-1.067v1.067h1.067v-1.067z" style="fill:var(--color2, #4d5ae5)"/>
      <path fill="#4d5ae5" d="M27.2 21.589h-1.067v1.067H27.2v-1.067zm-2.133 0H24v1.067h1.067v-1.067zm-2.667 4.8h-1.067v1.067H22.4v-1.067zm0 2.134h-1.067v1.067H22.4v-1.067zm1.067-1.067H22.4v1.067h1.067v-1.067zM21.334 27.456h-1.067v1.067h1.067v-1.067zM16 24.256h-1.066v1.067H16v-1.067zm0 2.133h-1.066v1.067H16v-1.067zm1.067-1.066H16v1.067h1.067v-1.067zm-2.133 0h-1.067v1.067h1.067v-1.067zM5.867 6.122H4.801v1.066h1.066V6.122zm0 2.133H4.801v1.067h1.066V8.256zm1.066-1.066H5.867v1.067h1.066V7.189zm-2.133 0H3.733v1.067H4.8V7.189z" style="fill:var(--color2, #4d5ae5)"/>
      <path fill="#2e2f42" d="M24.715 14.159a1.778 1.778 0 0 0-1.179-.704l-.009-.001a1.764 1.764 0 0 0-1.344.356l.004-.003-1.252.96-1.898 1.417-1.358-.541c2.421-1.086 4.114-3.508 4.114-6.32 0-3.823-3.122-6.933-6.961-6.933S7.87 5.5 7.87 9.323a6.86 6.86 0 0 0 1.12 3.758l-2.769-.024c-.008 0-.015.005-.024.005a.52.52 0 0 0-.155.03c-.013.005-.026.008-.038.014-.006.002-.013.003-.019.007L2.751 14.71l-1.893.911a.429.429 0 0 0-.064.036l.001-.001a1.78 1.78 0 0 0-.593 2.304l-.005-.01c.22.429.595.745 1.056.89a1.772 1.772 0 0 0 1.388-.133l-.009.005 1.388-.738 2.264-1.169 1.357-.008-5.442 5.415-.002.002-1.339 1.333c-.303.299-.49.714-.49 1.173v.005a1.668 1.668 0 0 0 1.669 1.663 1.67 1.67 0 0 0 1.18-.485l1.314-1.308 1.74-1.3.901.897L4.07 27.28c-.303.299-.49.714-.49 1.173v.005a1.669 1.669 0 0 0 1.67 1.664c.428 0 .855-.162 1.18-.485l3.482-3.466.001-.002 1.01-1-.004-.003c.007-.006.015-.009.022-.015l5.166-5.658 3.471.494a.522.522 0 0 0 .266-.035l-.003.001c.017-.006.033-.015.05-.023.019-.009.039-.015.057-.027l3.213-2.134c.012-.008.018-.02.029-.029.012-.01.029-.014.04-.025l1.272-1.192a1.777 1.777 0 0 0 .209-2.366l.003.005zM2.13 17.77a.714.714 0 0 1-.558.052.717.717 0 0 1-.215-1.258l.002-.001 1.314-.632.316.925.133.388-.993.527zm3.498-1.827-1.548.8-.255-.747-.183-.537 2.026-1-.04 1.483zm15.099-6.621a5.79 5.79 0 0 1-.599 2.559l-4.181-1.899a1.86 1.86 0 0 0-.782-1.384l-.006-.004 1.464-4.86c2.378.755 4.105 2.974 4.105 5.587zm-11.789 0c0-3.235 2.644-5.867 5.894-5.867.253 0 .5.022.745.053l-1.432 4.753c-.019 0-.037-.005-.057-.005h-.001a1.872 1.872 0 0 0-1.872 1.866 1.873 1.873 0 0 0 1.872 1.867h.001c.694 0 1.294-.383 1.618-.944l3.863 1.755a5.891 5.891 0 0 1-4.736 2.39c-3.25 0-5.895-2.633-5.895-5.867zm5.957.8c0 .441-.362.8-.806.8h-.002a.804.804 0 0 1-.804-.8c0-.441.361-.8.806-.8s.806.359.806.8zM2.465 25.146a.609.609 0 0 1-.855 0 .591.591 0 0 1 0-.844l.962-.959.851.848-.958.955zm3.213 3.734a.606.606 0 0 1-.855.001.591.591 0 0 1 0-.844l.963-.959.851.848-.96.955zm3.483-3.469-.002.001-1.765 1.76-.851-.848 1.763-1.756.002-.001c.04-.04.065-.088.09-.135.007-.014.02-.026.026-.04.017-.041.019-.085.025-.129.004-.024.014-.047.014-.073 0-.035-.012-.07-.02-.105-.007-.032-.007-.065-.018-.096a.511.511 0 0 0-.091-.137c-.01-.012-.014-.027-.025-.038h-.001l-.001-.002-1.607-1.6c-.017-.017-.039-.024-.058-.038a.491.491 0 0 0-.084-.056l-.003-.001a.477.477 0 0 0-.09-.032l-.003-.001a.502.502 0 0 0-.101-.02h-.022a.49.49 0 0 0-.077.006h.003a.59.59 0 0 0-.108.021l.004-.001a.502.502 0 0 0-.096.046l.002-.001c-.02.011-.043.015-.061.029l-1.774 1.324-.901-.897 2.399-2.386 4.36 4.289-.927.919zm6.818-7.017c-.015-.002-.03.004-.045.003l-.026-.001a.562.562 0 0 0-.092.008h.003a.5.5 0 0 0-.187.069l.002-.001a.554.554 0 0 0-.083.061c-.013.011-.028.017-.04.029l-4.698 5.146-4.328-4.257 2.833-2.818a.535.535 0 0 0-.378-.911h-.001l-2.219.013.027-1.607 3.104.027a6.928 6.928 0 0 0 4.978 2.101h.003c.438 0 .864-.045 1.279-.122.04.032.079.064.13.085l2.409.96.152.758.178.885-3.003-.427zm4.041.179-.314-1.558 1.447-1.08.947 1.257-2.08 1.381zm3.754-2.831-.838.785-.931-1.236.831-.637a.73.73 0 0 1 .543-.143.716.716 0 0 1 .395 1.231z" style="fill:var(--color1, #2e2f42)"/>
      <path fill="#2e2f42" d="m13.602 18.544-2.143-2.134a.53.53 0 0 0-.752 0l-2.143 2.134a.533.533 0 0 0 0 .756l2.143 2.133a.53.53 0 0 0 .752 0l2.143-2.133a.532.532 0 0 0 0-.756zm-2.519 1.759-1.386-1.381 1.386-1.381 1.387 1.381-1.387 1.381zm6.081-15.232-.258 1.035c.071.018 1.738.452 1.738 2.149h1.067c0-2.017-1.666-2.966-2.546-3.185zm2.547 4.251h-1.067v1.067h1.067V9.322z" style="fill:var(--color1, #2e2f42)"/>
    </symbol>
    <symbol id="icon-icon21" viewBox="0 0 32 32">
      <path d="M31.968 9.408c-.074-1.7-.35-2.87-.744-3.882a7.844 7.844 0 0 0-1.849-2.839l-.001-.001A7.898 7.898 0 0 0 26.596.862l-.054-.018c-1.02-.394-2.18-.67-3.88-.744C20.946.02 20.4 0 16.06 0c-4.346 0-4.89.02-6.596.094-1.7.074-2.868.35-3.88.744a7.844 7.844 0 0 0-2.839 1.849l-.001.001A7.89 7.89 0 0 0 .918 5.466L.9 5.52C.506 6.54.232 7.7.156 9.4c-.08 1.714-.1 2.26-.1 6.602 0 4.346.02 4.89.094 6.596.074 1.7.35 2.87.744 3.882a7.886 7.886 0 0 0 1.85 2.838c.8.812 1.77 1.444 2.832 1.844 1.02.394 2.18.67 3.882.744 1.706.076 2.25.094 6.596.094 4.344 0 4.888-.02 6.594-.094 1.7-.074 2.87-.35 3.882-.744a8.233 8.233 0 0 0 4.663-4.627l.019-.055c.394-1.02.67-2.18.744-3.882.076-1.706.094-2.25.094-6.596 0-4.344-.006-4.888-.08-6.594zm-2.88 13.064c-.07 1.564-.332 2.408-.552 2.97a5.34 5.34 0 0 1-3.002 3.027l-.036.013c-.562.218-1.412.48-2.968.548-1.688.076-2.194.094-6.464.094s-4.782-.02-6.464-.094c-1.564-.068-2.408-.33-2.97-.55a4.947 4.947 0 0 1-1.837-1.193l-.001-.001a5.001 5.001 0 0 1-1.183-1.804l-.011-.034c-.22-.562-.48-1.412-.55-2.968-.074-1.688-.094-2.196-.094-6.464 0-4.27.02-4.782.094-6.464.07-1.564.332-2.408.55-2.97a4.888 4.888 0 0 1 1.2-1.838A4.96 4.96 0 0 1 6.64 3.55c.56-.22 1.412-.48 2.968-.55 1.688-.074 2.194-.094 6.464-.094 4.276 0 4.78.02 6.464.094 1.562.07 2.406.332 2.968.55a4.929 4.929 0 0 1 1.84 1.194 4.98 4.98 0 0 1 1.192 1.84c.22.56.482 1.41.55 2.968.076 1.688.094 2.194.094 6.464s-.018 4.77-.092 6.456z"/>
      <path d="M16.06 7.782a8.222 8.222 0 0 0-.01 16.44h.009a8.222 8.222 0 0 0 .01-16.44h-.009zm0 13.554a5.334 5.334 0 1 1 0-10.668 5.334 5.334 0 1 1 0 10.668zM26.524 7.458a1.92 1.92 0 0 1-3.84 0 1.92 1.92 0 0 1 3.84 0z"/>
    </symbol>
    <symbol id="icon-icon22" viewBox="0 0 32 32">
      <path d="M32 6.078c-1.1.494-2.376.858-3.712 1.029l-.068.007a6.56 6.56 0 0 0 2.873-3.58l.013-.046a12.858 12.858 0 0 1-4.076 1.574l-.084.014A6.56 6.56 0 0 0 15.598 9.56c0 .52.044 1.02.152 1.496A18.554 18.554 0 0 1 2.255 4.228l-.027-.034a6.496 6.496 0 0 0-.895 3.311 6.562 6.562 0 0 0 2.888 5.442l.023.015a6.465 6.465 0 0 1-2.997-.823l.033.017v.072a6.592 6.592 0 0 0 5.213 6.438l.043.008a6.408 6.408 0 0 1-1.669.216h-.054.003a5.842 5.842 0 0 1-1.279-.118l.037.006c.873 2.624 3.273 4.496 6.121 4.57h.009a13.098 13.098 0 0 1-8.12 2.798h-.015.001c-.538 0-1.054-.024-1.57-.09C2.826 27.902 6.287 29 10.004 29h.063-.003c12.072 0 18.672-10 18.672-18.668 0-.29-.01-.57-.024-.848a13.186 13.186 0 0 0 3.258-3.359l.03-.047z"/>
    </symbol>
    <symbol id="icon-icon23" viewBox="0 0 32 32">
      <path d="M21.33 5.314h2.92V.226A36.551 36.551 0 0 0 20.125 0h-.138.007C15.782 0 12.9 2.65 12.9 7.52V12H8.25v5.688h4.648V32h5.698V17.69h4.46l.708-5.69h-5.17V8.08c.002-1.644.444-2.768 2.736-2.768z"/>
    </symbol>
    <symbol id="icon-icon24" viewBox="0 0 32 32">
      <path d="M31.992 32H32V20.26c0-5.74-1.236-10.164-7.948-10.164-3.226 0-5.392 1.772-6.276 3.45h-.094v-2.912H11.32V32h6.628V21.42c0-2.784.528-5.476 3.976-5.476 3.4 0 3.45 3.178 3.45 5.656V32h6.62zM.528 10.636h6.634V32H.528V10.636zM3.842 0C1.722 0 .002 1.72.002 3.84s1.72 3.88 3.84 3.88c2.122 0 3.844-1.76 3.844-3.88S5.96 0 3.84 0z"/>
    </symbol>
    <symbol id="icon-icon31" viewBox="0 0 28 32">
      <path d="m4.085 0 4.771 4.545-8.857-.004v22.053h23.149v-8.432l4.766 4.541V0H4.084zm18.854 17.629L9.411 4.74h13.528v12.889zm-4.2 5.739H3.663V8.536h1.066v13.828H18.74v1.005zM6.67 30.681l-.562-1.156h-.464l.814 1.529v.891h.42v-.892l.815-1.529h-.462l-.562 1.155zm2.071-1.156h.099l.914 2.42h-.438l-.196-.566h-.937l-.195.566h-.437l.911-2.42h.279zm-.444 1.523h.709l-.354-1.027-.354 1.027zm2.925-.402-.041-.052-.011-.015a1.267 1.267 0 0 1-.142-.23l-.003-.008a.58.58 0 0 1-.051-.239v-.001c0-.126.026-.234.078-.325s.128-.162.218-.208l.003-.001a.71.71 0 0 1 .334-.075.64.64 0 0 1 .318.075.524.524 0 0 1 .237.673l.001-.003a.603.603 0 0 1-.116.173 1.198 1.198 0 0 1-.165.146l-.003.002-.168.123.479.565a.94.94 0 0 0 .104-.435v-.018.001h.346c0 .118-.012.229-.035.334a1.04 1.04 0 0 1-.179.403l.002-.003.354.419h-.463l-.141-.165a.933.933 0 0 1-.242.134l-.007.002c-.109.04-.235.063-.367.063h-.009a.916.916 0 0 1-.417-.088.664.664 0 0 1-.271-.24l-.002-.003a.656.656 0 0 1-.095-.343v-.012.001c0-.099.02-.185.061-.259a.805.805 0 0 1 .168-.21c.066-.059.14-.118.225-.178zm.199.244-.05.036a.62.62 0 0 0-.13.136l-.001.002a.407.407 0 0 0-.022.411l-.001-.002a.358.358 0 0 0 .133.137l.002.001c.06.032.13.051.205.051h.013-.001a.62.62 0 0 0 .392-.139l-.002.001-.538-.633zm.095-.442.148-.099a.536.536 0 0 0 .149-.135l.001-.001a.302.302 0 0 0 .045-.159v-.012.001a.24.24 0 0 0-.241-.233h-.014.001-.007a.245.245 0 0 0-.223.142l-.001.002a.34.34 0 0 0 .011.298l-.001-.002c.025.052.06.107.105.165l.027.035zm4.235.71h-.416a.76.76 0 0 1-.078.272l.002-.004a.386.386 0 0 1-.166.164l-.002.001a.621.621 0 0 1-.262.057l-.027-.001h.001-.014a.508.508 0 0 1-.24-.06l.003.001a.48.48 0 0 1-.172-.163l-.001-.002a.78.78 0 0 1-.098-.249l-.001-.005a1.599 1.599 0 0 1-.032-.32v-.013.001-.204c0-.129.012-.243.035-.343s.06-.185.108-.254a.47.47 0 0 1 .176-.155l.003-.001a.535.535 0 0 1 .236-.053h.014-.001c.116 0 .21.02.283.06s.126.095.163.17a.778.778 0 0 1 .073.267h.415a1.037 1.037 0 0 0-.139-.435l.003.005a.771.771 0 0 0-.305-.292l-.004-.002a1.01 1.01 0 0 0-.457-.107h-.033.002c-.152 0-.289.027-.411.08s-.225.129-.311.232a1.011 1.011 0 0 0-.197.353l-.002.007c-.046.14-.068.298-.068.472v.202c0 .174.022.331.067.472s.111.261.196.361a.878.878 0 0 0 .307.229.99.99 0 0 0 .404.08c.195 0 .361-.035.497-.106s.242-.168.317-.291a.962.962 0 0 0 .133-.424zm2.308-.356v-.133c0-.182-.024-.347-.073-.49a1.051 1.051 0 0 0-.206-.373l.001.001a.88.88 0 0 0-.312-.232l-.006-.002a1.006 1.006 0 0 0-.409-.082.983.983 0 0 0-.407.082.88.88 0 0 0-.318.234 1.101 1.101 0 0 0-.206.371c-.047.14-.074.301-.074.468v.023-.001.133c0 .183.024.347.074.492.048.143.119.266.21.372l-.001-.001c.09.102.196.18.317.235.123.053.259.08.408.08s.286-.027.409-.08a.873.873 0 0 0 .316-.235c.088-.102.157-.225.204-.37s.072-.309.072-.492zm-.417-.136v.136c0 .136-.014.255-.04.36a.783.783 0 0 1-.115.267l.002-.003a.503.503 0 0 1-.18.16l-.003.001a.54.54 0 0 1-.237.053h-.012.001-.011a.545.545 0 0 1-.239-.055l.003.001a.541.541 0 0 1-.185-.16l-.001-.002a.789.789 0 0 1-.115-.259l-.001-.005a1.405 1.405 0 0 1-.04-.341v-.02.001-.136c0-.135.014-.254.04-.357s.065-.191.115-.261a.5.5 0 0 1 .181-.158l.003-.001a.527.527 0 0 1 .237-.055h.01c.092 0 .174.018.248.054s.134.088.184.16a.72.72 0 0 1 .115.261c.027.104.04.223.04.357z"/>
    </symbol>
    <symbol id="icon-icon32" viewBox="0 0 59 32">
      <path d="M28.637 3.391h-0.078c-0.12-0.007-0.24-0.010-0.36-0.013h-0.26c-0.227 0-0.458 0.006-0.688 0.017-0.008-0.001-0.017-0.001-0.026-0.001s-0.018 0-0.027 0.001l0.001-0c-2.206 0.129-4.255 0.68-6.106 1.575l0.096-0.042-0.247 0.119v12.653l0.578-0.197c0.507-0.174 1.048-0.331 1.607-0.477 1.382-0.37 2.973-0.592 4.612-0.614l0.013-0v1.662c-0.207 0.001-0.407 0.007-0.609 0.017h-0.048c-1.299 0.073-2.516 0.268-3.688 0.575l0.129-0.029c-1.61 0.409-3.021 0.975-4.333 1.7l0.093-0.047v-16.227c1.281-0.761 2.762-1.382 4.331-1.784l0.118-0.026c1.256-0.338 2.7-0.535 4.189-0.541h0.247c0.292 0.007 0.577 0.021 0.845 0.041 0.705 0.050 1.403 0.161 2.089 0.333v1.636c-0.583-0.143-1.274-0.251-1.981-0.303l-0.042-0.002-0.042-0.003c-0.141-0.012-0.282-0.024-0.414-0.024zM31.516 5.063c0.363 0.028 0.739 0.041 1.119 0.041 1.569-0.006 3.086-0.212 4.533-0.594l-0.125 0.028c1.61-0.411 3.020-0.977 4.331-1.7l-0.094 0.047v15.937c-1.281 0.761-2.762 1.381-4.331 1.783l-0.118 0.026c-1.257 0.337-2.7 0.533-4.189 0.539h-0.004c-0.031 0-0.067 0-0.103 0-1.093 0-2.153-0.137-3.166-0.394l0.089 0.019v-16.041c0.246 0.057 0.499 0.109 0.756 0.153 0.422 0.071 0.867 0.123 1.301 0.155zM39.627 5.187l-0.578 0.194c-0.531 0.179-1.069 0.339-1.607 0.481-1.44 0.385-3.094 0.61-4.8 0.616h-0.004c-0.377 0-0.724-0.010-1.059-0.032l-0.461-0.030v13.015l0.396 0.034c0.367 0.033 0.746 0.049 1.127 0.049 1.347-0.006 2.649-0.184 3.89-0.514l-0.107 0.024c1.134-0.288 2.118-0.652 3.051-1.104l-0.094 0.041 0.247-0.119v-12.656z"></path>
      <path d="M20.421 25.835c-0.155-0.161-0.373-0.261-0.613-0.261-0.011 0-0.021 0-0.032 0.001l0.002-0c-0.004-0-0.008-0-0.013-0-0.129 0-0.252 0.026-0.365 0.072l0.006-0.002c-0.22 0.088-0.39 0.26-0.473 0.475l-0.002 0.006c-0.046 0.114-0.068 0.236-0.066 0.359v2.168c-0.006 0.153 0.024 0.305 0.085 0.445 0.051 0.111 0.125 0.21 0.217 0.291 0.086 0.073 0.188 0.126 0.297 0.154 0.106 0.029 0.215 0.045 0.324 0.045 0.121 0.001 0.24-0.025 0.35-0.075 0.325-0.145 0.548-0.465 0.549-0.837v-0.242h-0.567v0.193c0 0.004 0 0.009 0 0.013 0 0.065-0.012 0.127-0.035 0.183l0.001-0.003c-0.019 0.048-0.047 0.089-0.082 0.122l-0 0c-0.065 0.050-0.147 0.081-0.237 0.083h-0c-0.010 0.001-0.021 0.002-0.033 0.002-0.095 0-0.18-0.046-0.232-0.118l-0.001-0.001c-0.048-0.076-0.076-0.169-0.076-0.269 0-0.008 0-0.015 0-0.023l-0 0.001v-2.022c-0.003-0.112 0.021-0.223 0.070-0.324 0.052-0.080 0.142-0.133 0.244-0.133 0.012 0 0.023 0.001 0.035 0.002l-0.001-0c0.003-0 0.007-0 0.011-0 0.099 0 0.187 0.048 0.242 0.122l0.001 0.001c0.059 0.076 0.094 0.173 0.094 0.279 0 0.004-0 0.009-0 0.013v-0.001 0.187h0.561v-0.221c0-0.003 0-0.006 0-0.010 0-0.133-0.025-0.26-0.072-0.377l0.002 0.007c-0.044-0.119-0.109-0.22-0.19-0.306l0 0zM23.788 25.811c-0.173-0.147-0.398-0.237-0.644-0.239h-0c-0.115 0-0.23 0.021-0.338 0.061-0.234 0.084-0.418 0.256-0.517 0.475l-0.002 0.006c-0.057 0.132-0.086 0.275-0.083 0.42v2.079c-0.004 0.146 0.025 0.291 0.083 0.426 0.051 0.112 0.126 0.211 0.219 0.291 0.087 0.080 0.189 0.143 0.299 0.183 0.109 0.040 0.223 0.061 0.338 0.061 0.248-0.001 0.474-0.093 0.646-0.245l-0.001 0.001c0.090-0.081 0.163-0.18 0.214-0.291 0.058-0.134 0.086-0.279 0.083-0.426v-2.079c0-0.005 0-0.012 0-0.018 0-0.145-0.031-0.283-0.086-0.408l0.003 0.006c-0.053-0.119-0.125-0.22-0.213-0.304l-0-0zM23.523 28.614c0.001 0.010 0.001 0.021 0.001 0.032 0 0.106-0.044 0.201-0.114 0.269l-0 0c-0.072 0.060-0.165 0.097-0.267 0.097s-0.195-0.037-0.267-0.098l0.001 0c-0.070-0.068-0.114-0.163-0.114-0.268 0-0.012 0.001-0.023 0.002-0.035l-0 0.001v-2.079c-0.001-0.010-0.001-0.021-0.001-0.032 0-0.105 0.044-0.201 0.114-0.268l0-0c0.072-0.060 0.165-0.097 0.267-0.097s0.195 0.037 0.267 0.098l-0.001-0c0.070 0.068 0.114 0.163 0.114 0.268 0 0.011-0 0.023-0.002 0.034l0-0.001v2.080zM28.21 29.543v-3.937h-0.545l-0.716 2.084h-0.010l-0.722-2.083h-0.539v3.936h0.562v-2.394h0.010l0.55 1.693h0.281l0.555-1.693h0.010v2.394h0.562zM31.405 25.882c-0.086-0.097-0.196-0.171-0.318-0.215-0.115-0.039-0.248-0.061-0.386-0.061-0.008 0-0.015 0-0.023 0l0.001-0h-0.835v3.937h0.561v-1.538h0.289c0.175 0.008 0.349-0.029 0.506-0.107 0.129-0.072 0.233-0.175 0.306-0.297l0.002-0.004c0.065-0.105 0.109-0.221 0.129-0.343 0.019-0.124 0.030-0.267 0.030-0.412 0-0.012-0-0.025-0-0.037l0 0.002c0.006-0.189-0.013-0.378-0.055-0.562-0.040-0.142-0.111-0.264-0.207-0.362l0 0zM31.115 27.082c-0.003 0.075-0.021 0.145-0.053 0.208l0.001-0.003c-0.032 0.060-0.082 0.108-0.143 0.137l-0.002 0.001c-0.069 0.032-0.15 0.050-0.235 0.050-0.010 0-0.020-0-0.030-0.001l0.001 0h-0.256v-1.338h0.289c0.008-0 0.017-0.001 0.027-0.001 0.082 0 0.16 0.018 0.229 0.051l-0.003-0.001c0.058 0.034 0.103 0.083 0.131 0.143l0.001 0.002c0.031 0.069 0.047 0.144 0.049 0.219v0.262c0 0.091 0.006 0.186 0 0.27h-0.006zM34.062 25.606h-0.46l-0.867 3.937h0.561l0.165-0.846h0.765l0.165 0.846h0.561l-0.889-3.937zM33.544 28.161l0.276-1.427h0.010l0.274 1.427h-0.561zM37.686 27.977h-0.010l-0.847-2.371h-0.539v3.937h0.561v-2.367h0.011l0.857 2.367h0.528v-3.936h-0.561v2.371zM41.113 25.606l-0.451 1.566h-0.011l-0.451-1.566h-0.593l0.77 2.273v1.663h0.561v-1.663l0.77-2.273h-0.594zM18.857 30.654h0.27v0.758h0.183v-0.759h0.269v-0.155h-0.722v0.156zM21.13 30.498l-0.354 0.914h0.195l0.075-0.208h0.365l0.078 0.208h0.2l-0.363-0.914h-0.195zM21.101 31.051l0.124-0.339 0.124 0.339h-0.249zM23.376 31.075h0.211v0.118c-0.059 0.048-0.135 0.077-0.217 0.077h-0c-0.004 0-0.009 0-0.013 0-0.073 0-0.139-0.034-0.181-0.087l-0-0c-0.043-0.061-0.068-0.136-0.068-0.218 0-0.007 0-0.014 0.001-0.021l-0 0.001c0-0.203 0.088-0.305 0.263-0.305 0.006-0.001 0.013-0.001 0.020-0.001 0.090 0 0.166 0.062 0.187 0.145l0 0.001 0.181-0.035c-0.039-0.178-0.167-0.269-0.387-0.269-0.004-0-0.008-0-0.012-0-0.118 0-0.226 0.045-0.308 0.118l0-0c-0.082 0.081-0.133 0.193-0.133 0.317 0 0.012 0 0.024 0.001 0.036l-0-0.002c-0 0.006-0 0.014-0 0.021 0 0.123 0.044 0.235 0.118 0.322l-0.001-0.001c0.081 0.083 0.194 0.135 0.319 0.135 0.010 0 0.020-0 0.029-0.001l-0.001 0c0.004 0 0.010 0 0.015 0 0.144 0 0.275-0.055 0.373-0.146l-0 0v-0.36h-0.396v0.154zM25.67 30.498h-0.185v0.914h0.64v-0.155h-0.455v-0.759zM27.61 30.498h-0.185v0.914h0.185v-0.914zM29.506 31.109l-0.374-0.61h-0.179v0.914h0.171v-0.597l0.367 0.597h0.184v-0.914h-0.17v0.611zM31.221 31.010h0.455v-0.155h-0.455v-0.2h0.49v-0.156h-0.675v0.914h0.694v-0.155h-0.509v-0.247zM35.378 30.859h-0.36v-0.36h-0.183v0.914h0.183v-0.4h0.36v0.4h0.184v-0.914h-0.184v0.361zM37.103 31.010h0.457v-0.155h-0.457v-0.2h0.491v-0.156h-0.674v0.914h0.693v-0.155h-0.509v-0.247zM39.442 31.010c0.159-0.025 0.24-0.109 0.24-0.254 0.001-0.008 0.002-0.017 0.002-0.026 0-0.073-0.036-0.138-0.091-0.177l-0.001-0c-0.068-0.035-0.147-0.055-0.232-0.055-0.013 0-0.025 0-0.037 0.001l0.002-0h-0.387v0.914h0.184v-0.382h0.036c0.004-0 0.010-0 0.015-0 0.036 0 0.070 0.008 0.101 0.022l-0.002-0.001c0.027 0.017 0.049 0.039 0.065 0.067l0.199 0.29h0.219l-0.111-0.178c-0.050-0.089-0.118-0.163-0.2-0.218l-0.002-0.001zM39.257 30.883h-0.135v-0.229h0.145c0.012-0.001 0.025-0.002 0.039-0.002 0.053 0 0.104 0.009 0.151 0.024l-0.003-0.001c0.025 0.022 0.040 0.054 0.040 0.089 0 0.039-0.019 0.074-0.048 0.096l-0 0c-0.046 0.015-0.098 0.023-0.153 0.023-0.012 0-0.024-0-0.036-0.001l0.002 0zM41.206 31.010h0.455v-0.155h-0.455v-0.2h0.491v-0.156h-0.677v0.914h0.694v-0.155h-0.509v-0.247z"></path>
    </symbol>
    <symbol id="icon-icon33" viewBox="0 0 34 32">
      <path d="M5.315 31.394c.013 0 .025.003.036.008.012.004.022.01.031.018l.172.162a1.416 1.416 0 0 1-.474.304l-.01.003a1.91 1.91 0 0 1-.688.11h-.036c-.219 0-.429-.038-.624-.107l.013.004a1.426 1.426 0 0 1-.487-.291l.001.001a1.295 1.295 0 0 1-.311-.441l-.003-.008a1.444 1.444 0 0 1-.11-.559v-.018.001-.019c0-.203.044-.395.122-.568l-.003.009c.075-.167.189-.32.334-.449.146-.125.318-.225.506-.29l.011-.003c.192-.065.414-.103.644-.103h.023-.001a1.84 1.84 0 0 1 .618.094c.171.064.328.151.464.26l-.144.173a.134.134 0 0 1-.036.031h-.001a.094.094 0 0 1-.05.014h-.009a.133.133 0 0 1-.063-.019h.001l-.078-.046-.107-.059a1.2 1.2 0 0 0-.333-.103l-.007-.001a1.438 1.438 0 0 0-.235-.018h-.023.001-.017c-.165 0-.324.028-.471.08l.01-.003c-.145.05-.269.124-.376.218l.001-.001c-.108.101-.19.219-.244.347-.056.13-.088.282-.088.441v.016-.001.017c0 .161.032.314.091.454l-.003-.008a.992.992 0 0 0 .59.556l.007.002c.14.05.291.075.443.073.088.002.176-.004.263-.015.219-.022.414-.108.571-.239l-.002.001a.137.137 0 0 1 .082-.03zm4.976-.815c.003.195-.037.39-.116.573a1.26 1.26 0 0 1-.323.444l-.001.001a1.506 1.506 0 0 1-.509.291 2.151 2.151 0 0 1-1.325-.004l.015.004a1.524 1.524 0 0 1-.509-.294l.002.002a1.311 1.311 0 0 1-.324-.441l-.003-.008a1.468 1.468 0 0 1 .003-1.157l-.004.01c.073-.167.185-.32.328-.451.144-.123.317-.219.507-.281.421-.14.888-.14 1.31 0a1.5 1.5 0 0 1 .508.293c.272.243.442.594.442.985v.036-.002zm-.452 0a1.176 1.176 0 0 0-.081-.46.952.952 0 0 0-.588-.559l-.007-.002a1.539 1.539 0 0 0-.963.003l.011-.003a1.038 1.038 0 0 0-.365.218l.001-.001a.925.925 0 0 0-.23.337l-.002.006c-.109.3-.109.621 0 .921a.935.935 0 0 0 .233.344c.101.094.226.168.365.215.307.098.645.098.952 0 .138-.048.263-.122.364-.215a.962.962 0 0 0 .231-.344c.058-.148.086-.304.081-.46zm3.848.484.044.103a2.5 2.5 0 0 1 .106-.204l1.101-1.709c.022-.03.041-.048.062-.055a.283.283 0 0 1 .074-.009h.018-.001.325v2.781h-.386v-2.131a.683.683 0 0 1 0-.098v.002l-1.107 1.733a.155.155 0 0 1-.064.063h-.001a.191.191 0 0 1-.093.023H13.7a.199.199 0 0 1-.094-.024h.001a.16.16 0 0 1-.064-.062v-.001l-1.139-1.745v2.232h-.373v-2.775h.339c.027 0 .053.004.078.01h-.002a.123.123 0 0 1 .06.052v.001l1.124 1.712a.585.585 0 0 1 .057.1zm4.143-.139v1.041h-.431v-2.777h.96c.182-.003.363.017.537.061.14.034.268.092.379.172a.729.729 0 0 1 .214.269l.002.004a.81.81 0 0 1 .073.355v.012a.773.773 0 0 1-.31.619l-.002.001a1.09 1.09 0 0 1-.375.182l-.008.002a1.877 1.877 0 0 1-.518.064l-.521-.008zm0-.298h.521c.113.001.226-.013.333-.043a.716.716 0 0 0 .244-.121l-.002.001a.525.525 0 0 0 .198-.411v-.007l.001-.028a.453.453 0 0 0-.046-.201l.001.003a.527.527 0 0 0-.15-.189l-.001-.001a.929.929 0 0 0-.582-.149h.003-.521v1.145zm5.791 1.344H23.274a.169.169 0 0 1-.089-.026h.001a.17.17 0 0 1-.056-.063v-.001l-.293-.672h-1.472l-.304.671a.153.153 0 0 1-.053.062h-.001a.161.161 0 0 1-.092.028H20.57l1.293-2.781h.448l1.31 2.781zm-2.133-1.033h1.215l-.513-1.132a1.598 1.598 0 0 1-.094-.249l-.003-.013-.049.145a1.664 1.664 0 0 1-.047.117l-.509 1.132zm3.995-1.736a.185.185 0 0 1 .064.05l1.886 2.096v-2.159h.386v2.781h-.224a.222.222 0 0 1-.082-.016l.001.001a.256.256 0 0 1-.069-.052l-1.883-2.095a.683.683 0 0 1 0 .098v-.002 2.067h-.386v-2.781h.228a.206.206 0 0 1 .078.012zm5.51 1.663v1.104h-.431v-1.104l-1.191-1.675h.396c.031 0 .059.009.084.024h-.001a.261.261 0 0 1 .058.062l.745 1.081c.051.071.095.152.129.239l.003.007.056-.119a1.07 1.07 0 0 1 .073-.127l.735-1.088a.281.281 0 0 1 .055-.059h.001a.146.146 0 0 1 .085-.027h.398l-1.194 1.683zm-17.519-6.343c.187.02.377.037.569.052 2.907-1.111 5.366-2.929 7.07-5.229s2.577-4.975 2.51-7.696L20.42 8.911c.651 2.896.347 5.89-.88 8.648-1.227 2.756-3.327 5.167-6.066 6.962z"/>
      <path d="m12.329 24.393.086.015c2.927-1.789 5.159-4.286 6.406-7.17s1.454-6.021.592-9.006l-4.564-3.899c1.846 3.205 2.589 6.791 2.142 10.341s-2.064 6.922-4.663 9.719zm15.476-9.531c-.775 2.989-2.658 5.685-5.369 7.688a16.877 16.877 0 0 1-2.453 1.519l-.098.045c2.207-.554 4.236-1.534 5.93-2.864s3.008-2.975 3.84-4.808l-1.85-1.58z"/>
      <path d="m27.079 14.422-2.635-2.251c-.051 2.567-.905 5.075-2.473 7.264s-3.796 3.98-6.448 5.185h.013c.591 0 1.182-.03 1.769-.09 2.48-.865 4.67-2.24 6.375-4.004s2.874-3.861 3.4-6.103zM12.711 2.69 9.569 0c-2.81.928-5.227 2.558-6.934 4.68C.927 6.801.008 9.311 0 11.886c.01 2.843 1.131 5.604 3.184 7.842s4.92 3.828 8.15 4.518c2.883-3.001 4.571-6.71 4.819-10.587s-.958-7.719-3.442-10.971zm21.63 11.318c-.012-3.375-1.585-6.608-4.379-8.994-2.792-2.386-6.576-3.731-10.526-3.741h-.034c-1.896 0-3.719.31-5.422.883l.12-.035 19.245 16.443c.627-1.338.993-2.905.995-4.557v-.001z"/>
    </symbol>
    <symbol id="icon-icon34" viewBox="0 0 59 32">
      <path d="M13.759 12.296h-.002c-1.363 0-2.469.997-2.469 2.225v.002c0 1.229 1.106 2.225 2.469 2.225h.002c1.363 0 2.469-.996 2.469-2.225v-.002c0-1.229-1.105-2.225-2.469-2.225zm18.219-.711c-.003-1.707-.757-3.343-2.096-4.551-1.339-1.207-3.153-1.887-5.047-1.891-1.894.003-3.709.683-5.049 1.89s-2.094 2.844-2.097 4.551v9.414s14.287-1.434 14.289-9.412v-.002zM6.286 24.088c.003 1.188.528 2.326 1.459 3.166s2.194 1.314 3.511 1.317c1.317-.003 2.579-.477 3.511-1.317s1.456-1.977 1.46-3.166v-6.549s-9.942.998-9.942 6.548zm4.971 1.174c-.257 0-.509-.069-.723-.198a1.218 1.218 0 0 1-.476-.52l-.003-.007a1.045 1.045 0 0 1-.073-.685l-.001.007c.056-.241.182-.446.355-.6l.001-.001c.181-.161.408-.275.659-.32l.008-.001c.253-.046.514-.022.752.067s.441.239.584.432a1.093 1.093 0 0 1 .121 1.103 1.164 1.164 0 0 1-.282.382c-.119.107-.26.194-.414.252l-.009.003c-.148.057-.319.09-.498.09h-.002v-.005zm9.091-2.111v2.438h-.502v-2.438h.502zm.971 1.042v.392H20.21v-.392h1.109zm.117-1.042v.393h-1.225v-.393h1.225zm2.294 1.162v.115c0 .186-.025.352-.075.499a1.102 1.102 0 0 1-.214.379l.001-.001a.919.919 0 0 1-.328.236c-.12.052-.259.082-.405.082h-.016.001c-.153 0-.293-.027-.42-.082a.951.951 0 0 1-.327-.235l-.001-.001a1.106 1.106 0 0 1-.214-.369l-.002-.008a1.505 1.505 0 0 1-.076-.477v-.023.001-.115c0-.186.025-.353.075-.499.048-.145.121-.271.214-.378l-.001.001a.938.938 0 0 1 .328-.238c.127-.055.267-.082.421-.082.154 0 .294.027.42.082a.912.912 0 0 1 .328.238c.093.104.164.229.214.377.051.146.077.312.077.498zm-.508.116v-.119c0-.129-.011-.243-.035-.341a.743.743 0 0 0-.106-.251l.002.003a.448.448 0 0 0-.165-.15l-.002-.001a.478.478 0 0 0-.216-.052h-.01a.485.485 0 0 0-.226.051.465.465 0 0 0-.165.149l-.001.002a.752.752 0 0 0-.101.243l-.001.005a1.452 1.452 0 0 0-.035.32v.022-.001.119c0 .129.011.242.035.342a.76.76 0 0 0 .104.25c.046.067.102.118.167.152s.141.052.226.052c.085 0 .16-.017.226-.051a.453.453 0 0 0 .165-.151l.001-.002a.77.77 0 0 0 .102-.25c.022-.097.035-.207.035-.321v-.022.001zm2.138.522v-.005a.308.308 0 0 0-.021-.114l.001.002a.23.23 0 0 0-.07-.097.636.636 0 0 0-.142-.087l-.004-.002a1.852 1.852 0 0 0-.228-.086l-.015-.004a3.048 3.048 0 0 1-.334-.128l.019.008a1.265 1.265 0 0 1-.264-.158l.003.002a.691.691 0 0 1-.175-.206l-.002-.004a.575.575 0 0 1-.064-.264v-.012.001-.008c0-.098.025-.191.068-.271l-.002.003a.637.637 0 0 1 .187-.214.861.861 0 0 1 .285-.139 1.3 1.3 0 0 1 .363-.049c.179 0 .337.033.47.097s.238.154.311.266a.691.691 0 0 1 .112.387h-.499v-.009a.38.38 0 0 0-.046-.181l.001.002a.307.307 0 0 0-.132-.128l-.002-.001a.467.467 0 0 0-.207-.047h-.019.001-.017a.517.517 0 0 0-.204.042l.003-.001a.295.295 0 0 0-.131.105l-.001.001a.257.257 0 0 0-.043.143v.005c0 .041.01.079.03.112a.343.343 0 0 0 .093.093l.001.001c.041.029.091.057.152.082s.13.051.209.075c.133.04.25.085.35.135s.186.106.254.169a.62.62 0 0 1 .205.483v.023a.587.587 0 0 1-.24.473l-.002.001c-.078.058-.171.102-.279.132s-.229.046-.363.046a1.4 1.4 0 0 1-.357-.047 1.067 1.067 0 0 1-.324-.148l.004.002a.742.742 0 0 1-.226-.244l-.002-.004a.712.712 0 0 1-.085-.357h.504c0 .076.011.14.035.193a.323.323 0 0 0 .098.126l.001.001a.436.436 0 0 0 .151.07l.003.001c.06.015.126.022.197.022h.019c.07 0 .138-.014.199-.038l-.004.001a.265.265 0 0 0 .167-.246v-.004zm1.934-1.8v2.438h-.501v-2.438h.501zm.75 0v.393h-1.989v-.393h1.989zm1.922 2.046v.392h-1.297v-.392h1.297zm-1.133-2.046v2.438h-.503v-2.438h.503zm.964.993v.382h-1.129v-.382h1.129zm.167-.993v.393h-1.296v-.393h1.296zm.295 0h.909c.187 0 .347.028.481.083.135.056.239.139.311.248s.109.244.109.403a.773.773 0 0 1-.067.337.647.647 0 0 1-.184.232l-.001.001a.965.965 0 0 1-.273.145l-.007.002-.159.084h-.79l-.003-.392h.604a.46.46 0 0 0 .206-.048l-.003.001a.317.317 0 0 0 .13-.129l.001-.002a.392.392 0 0 0 .045-.185V23.91a.436.436 0 0 0-.045-.194l.001.003a.294.294 0 0 0-.131-.13l-.002-.001a.484.484 0 0 0-.207-.046h-.017.001-.407v2.045h-.502v-2.438zm1.362 2.438-.555-1.087.53-.003.563 1.067v.023h-.537zm2.637-.868h-.621v-.392h.641a.493.493 0 0 0 .217-.049l-.003.001a.3.3 0 0 0 .131-.133l.001-.002a.485.485 0 0 0-.002-.398l.001.003a.342.342 0 0 0-.131-.15l-.001-.001a.433.433 0 0 0-.216-.058h-.019.001-.447v2.045h-.502v-2.438h.949c.191 0 .354.034.491.104.137.068.242.162.314.283s.109.258.109.413c0 .158-.036.294-.109.409s-.177.204-.314.266c-.137.063-.3.094-.491.094zm2.896.476v.392h-1.297v-.392h1.297zm-1.133-2.046v2.438h-.503v-2.438h.503zm.964.993v.382h-1.128v-.382h1.129zm.168-.993v.393h-1.295v-.393h1.295zm1.418 0v2.438h-.501v-2.438h.501zm.75 0v.393h-1.989v-.393h1.989zm1.921 2.046v.392h-1.297v-.392h1.297zm-1.133-2.046v2.438h-.502v-2.438h.502zm.964.993v.382h-1.128v-.382h1.128zm.168-.993v.393h-1.295v-.393h1.295zm.294 0h.909c.187 0 .347.028.481.083s.239.139.311.248a.717.717 0 0 1 .109.403c0 .131-.023.243-.067.337s-.107.171-.184.232l-.001.001a.965.965 0 0 1-.273.145l-.007.002-.159.084h-.79l-.003-.392h.604a.46.46 0 0 0 .206-.048l-.003.001a.317.317 0 0 0 .13-.129l.001-.002a.394.394 0 0 0 .046-.186V23.912a.44.44 0 0 0-.045-.195l.001.003a.297.297 0 0 0-.13-.13l-.002-.001a.484.484 0 0 0-.207-.046h-.017.001-.407v2.045h-.502V23.15zm1.363 2.438-.556-1.087.531-.003.562 1.067v.023h-.537zm2.103-.638v-.004a.341.341 0 0 0-.021-.116l.001.002a.23.23 0 0 0-.07-.097.636.636 0 0 0-.142-.087l-.004-.002a1.793 1.793 0 0 0-.228-.086l-.015-.004a2.899 2.899 0 0 1-.334-.128l.019.008a1.291 1.291 0 0 1-.264-.158l.003.002a.691.691 0 0 1-.175-.206l-.002-.004a.575.575 0 0 1-.064-.264v-.012.001-.008c0-.098.025-.191.068-.271l-.002.003a.637.637 0 0 1 .187-.214.861.861 0 0 1 .285-.139 1.3 1.3 0 0 1 .363-.049c.179 0 .337.033.47.097s.238.154.311.266a.683.683 0 0 1 .112.387H45v-.009a.38.38 0 0 0-.046-.181l.001.002a.307.307 0 0 0-.132-.128l-.002-.001a.467.467 0 0 0-.207-.047h-.019.001-.017a.517.517 0 0 0-.204.042l.003-.001a.287.287 0 0 0-.13.105l-.001.001a.257.257 0 0 0-.043.144v.004c0 .041.01.079.03.112a.343.343 0 0 0 .093.093l.001.001c.041.029.091.057.152.082s.13.051.209.075c.133.04.25.085.35.135s.186.106.254.169a.62.62 0 0 1 .205.483v.023a.585.585 0 0 1-.24.473l-.002.001c-.078.058-.171.102-.279.132s-.229.046-.363.046c-.121 0-.24-.016-.357-.047a1.067 1.067 0 0 1-.324-.148l.004.002a.732.732 0 0 1-.226-.244l-.002-.004a.712.712 0 0 1-.085-.357h.504c0 .076.011.14.035.193a.323.323 0 0 0 .098.126l.001.001a.436.436 0 0 0 .151.07l.003.001c.06.015.126.022.198.022h.018c.07 0 .138-.014.199-.038l-.004.001a.265.265 0 0 0 .167-.246v-.004z"/>
    </symbol>
    <symbol id="icon-icon35" viewBox="0 0 44 32">
      <path d="M3.334 26.694c.17.191.262.429.257.673.008.159-.023.319-.092.466s-.174.278-.307.384a1.847 1.847 0 0 1-1.163.31h.006H0v-4.266h1.993a1.836 1.836 0 0 1 1.111.287l-.007-.004c.129.097.231.22.298.358s.097.289.089.44a.919.919 0 0 1-.232.652 1.107 1.107 0 0 1-.599.333l-.007.001c.27.045.513.174.687.365zM.947 26.05h.852a.873.873 0 0 0 .541-.141.516.516 0 0 0 .145-.186l.001-.003a.447.447 0 0 0 .039-.185l-.002-.045v.002l.001-.036a.477.477 0 0 0-.041-.193l.001.003a.54.54 0 0 0-.141-.19l-.001-.001a.888.888 0 0 0-.562-.143h.003-.839v1.119zm1.477 1.637a.547.547 0 0 0 .156-.192l.001-.003a.475.475 0 0 0 .046-.205l-.001-.035v.002l.001-.03a.494.494 0 0 0-.049-.214l.001.003a.546.546 0 0 0-.159-.196l-.001-.001a.941.941 0 0 0-.522-.156l-.059.002h.003-.895v1.174h.905a.978.978 0 0 0 .572-.148zm4.984.842-1.109-1.667h-.417v1.667h-.953v-4.266h1.805a1.904 1.904 0 0 1 1.262.367l-.005-.004c.253.232.405.537.429.861s-.08.644-.295.904c-.223.23-.527.383-.861.434l1.181 1.704H7.408zM5.882 26.28h.78c.542 0 .813-.216.813-.646l.001-.035a.572.572 0 0 0-.046-.227l.001.004a.626.626 0 0 0-.155-.221.9.9 0 0 0-.617-.173h.003-.79l.01 1.298zm6.739 1.39H10.72l-.336.858h-1l1.746-4.218h1.081l1.738 4.218h-1l-.328-.858zm-.254-.646-.695-1.801-.694 1.8h1.389zm6.779 1.505H18.2l-2.123-2.901v2.901h-.945v-4.266h.945l2.122 2.918v-2.918h.947v4.266zm5.404-1.022a1.98 1.98 0 0 1-.844.748l-.012.005a3.04 3.04 0 0 1-1.331.269h-1.686v-4.266h1.686l.078-.001c.453 0 .884.097 1.272.271l-.02-.008c.362.165.661.424.856.744.195.347.296.73.296 1.119a2.276 2.276 0 0 1-.302 1.13l.006-.011zm-1.084-.102c.256-.263.416-.622.419-1.018v-.001a1.468 1.468 0 0 0-.419-1.018 1.747 1.747 0 0 0-1.19-.362h.005-.657v2.762h.657a1.76 1.76 0 0 0 1.19-.366l-.004.003zM13.213.534s12.221 4.153 11.962 10.163v10.166s-12.211-4.156-11.958-10.166L13.213.534zm22.849 17.949c2.308-1.43 4.977-2.317 7.764-2.576v-3.183c-3.211 1.114-5.935 3.134-7.764 5.758z"/>
      <path d="M34.675 19.442c1.888-3.425 5.164-6.067 9.151-7.384v-9.17S26.422 8.805 26.79 17.364v14.474s.776-.264 1.996-.761c0-.463 0-.929.056-1.398.36-3.974 2.458-7.656 5.834-10.237z"/>
      <path d="M33.02 24.819c.103-1.095.318-2.101.637-3.06l-.028.096c-2.102 2.229-3.375 4.995-3.64 7.909-.025.275-.039.55-.046.833a49.032 49.032 0 0 0 3.636-1.726l-.288.139a13.192 13.192 0 0 1-.328-2.958c0-.434.02-.864.06-1.287l-.004.054zm.692.052a12.983 12.983 0 0 0 .231 3.88l-.015-.085c4.755-2.561 10.097-6.518 9.891-11.302v-.417c-3.397.343-6.575 1.68-9.047 3.806a12.764 12.764 0 0 0-1.056 4.067l-.004.051z"/>
    </symbol>
    <symbol id="icon-icon36" viewBox="0 0 67 32">
      <path d="M33.799 15.248a2.088 2.088 0 0 1-.431-1.423v.006-2.054c0-.629.143-1.108.429-1.435s.777-.491 1.472-.489c.654 0 1.118.139 1.392.418.299.356.444.79.411 1.228v.484h-1.169v-.489c.004-.16-.007-.32-.034-.479a.462.462 0 0 0-.166-.284l-.001-.001a.672.672 0 0 0-.426-.11h.002a.712.712 0 0 0-.448.118l.003-.002a.553.553 0 0 0-.193.309l-.001.004c-.03.141-.047.302-.047.468v.042-.002 2.492a1.27 1.27 0 0 0 .154.707l-.003-.007a.552.552 0 0 0 .23.169l.004.001c.095.036.199.05.302.039a.635.635 0 0 0 .414-.113.503.503 0 0 0 .174-.3v-.003c.027-.165.04-.332.036-.499v-.506h1.17v.462a1.869 1.869 0 0 1-.408 1.294l.003-.004c-.268.305-.725.457-1.399.457s-1.181-.163-1.47-.501zm4.868.022c-.295-.32-.443-.786-.443-1.402v-2.16c0-.61.148-1.072.443-1.385s.789-.469 1.482-.468c.688 0 1.179.156 1.474.468.296.314.446.775.446 1.385v2.16c0 .61-.15 1.078-.45 1.4s-.789.482-1.47.482-1.184-.163-1.482-.48zm2.027-.519a1.2 1.2 0 0 0 .14-.639v-2.645l.002-.07a1.17 1.17 0 0 0-.143-.562l.003.006a.563.563 0 0 0-.234-.172l-.004-.001a.626.626 0 0 0-.312-.037h.003a.66.66 0 0 0-.314.039l.004-.002a.564.564 0 0 0-.24.17l-.001.001a1.138 1.138 0 0 0-.14.627v2.658c-.015.22.033.439.14.639a.745.745 0 0 0 .247.159.805.805 0 0 0 .606-.002l-.006.002a.755.755 0 0 0 .247-.159v-.013zm2.782-4.834h1.259l.947 3.986.968-3.986h1.225l.124 5.753h-.906l-.097-3.998-.934 3.998h-.726l-.969-4.013-.09 4.013h-.915l.114-5.753zm5.934 0h1.961c1.129 0 1.695.545 1.695 1.633 0 1.043-.595 1.564-1.785 1.563h-.668v2.557h-1.21l.007-5.754zm1.676 2.459a.95.95 0 0 0 .356-.028.86.86 0 0 0 .31-.154.926.926 0 0 0 .174-.654v.004l.001-.066c0-.162-.021-.319-.062-.469l.003.013a.418.418 0 0 0-.09-.158.513.513 0 0 0-.15-.115l-.003-.001a1.234 1.234 0 0 0-.475-.093l-.069.002h.003-.469v1.719h.469zm3.726-2.459h1.3l1.334 5.753h-1.129l-.263-1.326h-1.16l-.272 1.327h-1.145l1.334-5.754zm1.111 3.761-.453-2.415-.453 2.415h.905zm2.6-3.761h.848l1.621 3.282V9.917h1.005v5.753h-.806l-1.632-3.425v3.425h-1.038l.002-5.753zm5.828 3.56-1.348-3.552h1.136l.823 2.281.772-2.281h1.111l-1.332 3.552v2.193h-1.162v-2.193zm-28.683 4.709v.301h-.988v2.337h-.413v-2.337h-.993v-.301h2.394zm3.096 2.638h-.328a.141.141 0 0 1-.081-.025.134.134 0 0 1-.053-.06v-.001l-.286-.627h-1.37l-.286.627a.166.166 0 0 1-.043.071.144.144 0 0 1-.082.025h-.328l1.211-2.638h.421l1.225 2.628zm-2.005-.979h1.143l-.484-1.074a1.815 1.815 0 0 1-.087-.235l-.003-.014-.045.14-.044.111-.479 1.072zm4.092.72c.076.004.152.004.228 0 .065-.006.13-.016.194-.031.07-.015.128-.032.185-.052l-.01.003c.053-.018.107-.041.162-.064v-.594h-.49a.094.094 0 0 1-.03-.005h.001a.108.108 0 0 1-.03-.016.06.06 0 0 1-.018-.021.048.048 0 0 1-.006-.024V19.555h.939v1.011a1.796 1.796 0 0 1-.498.213l-.013.003c-.1.025-.201.043-.303.054a3.51 3.51 0 0 1-.353.017h-.014c-.213 0-.418-.036-.609-.103l.013.004a1.488 1.488 0 0 1-.486-.277l.002.002a1.297 1.297 0 0 1-.31-.41l-.003-.008a1.301 1.301 0 0 1-.111-.53v-.019.001-.016c0-.193.04-.377.112-.544l-.003.009c.07-.156.176-.299.313-.418a1.47 1.47 0 0 1 .484-.274c.208-.068.428-.1.649-.098.113 0 .225.007.336.023a1.63 1.63 0 0 1 .53.172c.076.042.145.087.211.138l-.116.164a.101.101 0 0 1-.039.035h-.001a.112.112 0 0 1-.055.014.16.16 0 0 1-.076-.022h.001a1.563 1.563 0 0 1-.125-.066l.007.004a1.112 1.112 0 0 0-.155-.069l-.008-.002a1.522 1.522 0 0 0-.213-.057l-.009-.001a1.752 1.752 0 0 0-.291-.023h-.017.001-.014c-.162 0-.318.027-.463.076l.01-.003a1.034 1.034 0 0 0-.356.209l.001-.001a.903.903 0 0 0-.226.329 1.221 1.221 0 0 0 .003.888l-.003-.008a.95.95 0 0 0 .242.332c.1.09.22.161.353.209.154.046.317.063.479.052zm3.859-.042h1.323v.301h-1.727v-2.638h.414l-.01 2.337zm2.698.301h-.414v-2.638h.414v2.638zm1.539-2.626a.203.203 0 0 1 .064.048l1.769 1.989-.002-.047.002-.049v.002-1.966h.361v2.65h-.221a.193.193 0 0 1-.077-.016h.001a.23.23 0 0 1-.065-.05l-1.767-1.988v2.052h-.346v-2.639h.215c.023 0 .047.004.068.012zm5.243-.012v.29h-1.468v.871h1.188v.28h-1.188v.9h1.467v.29h-1.894v-2.632h1.894zM10.805 1.891l18.384 4.504v15.783l-18.384-4.501V1.89zM9.626.545v17.897l20.74 5.083V5.629L9.626.545z"/>
      <path d="M20.742 31.834 0 26.747V8.851l20.742 5.084v17.899z"/>
      <path d="m9.97 1.688 18.144 4.447-7.716 6.66-18.147-4.45 7.718-6.657zM9.626.545 0 8.851l20.742 5.085 9.624-8.306L9.626.544zm12.283 30.282 8.457-7.299-8.457-2.074v9.374z"/>
    </symbol>
    <symbol id="icon-icon41" viewBox="0 0 32 32">
     <path d="M32 3.224l-3.224-3.224-12.776 12.776-12.776-12.776-3.224 3.224 12.776 12.776-12.776 12.776 3.224 3.224 12.776-12.776 12.776 12.776 3.224-3.224-12.776-12.776 12.776-12.776z"></path>
     </symbol>
     <symbol id="icon-icon42" viewBox="0 0 32 32">
      <path d="M16 16c2.946 0 5.333-2.388 5.333-5.333s-2.388-5.333-5.333-5.333v0c-2.946 0-5.333 2.388-5.333 5.333s2.388 5.333 5.333 5.333v0zM16 18.667c-3.561 0-10.667 1.787-10.667 5.333v1.333c0 0.732 0.599 1.333 1.333 1.333h18.667c0.732 0 1.333-0.601 1.333-1.333v-1.333c0-3.547-7.108-5.333-10.667-5.333z"></path>
     </symbol>
     <symbol id="icon-icon43" viewBox="0 0 24 32">
      <path d="M19.635 18.487l-2.451-0.28c-0.067-0.008-0.145-0.013-0.223-0.013-0.531 0-1.012 0.215-1.36 0.564l-1.775 1.775c-2.752-1.42-4.94-3.607-6.322-6.278l-0.038-0.081 1.787-1.785c0.347-0.347 0.562-0.827 0.562-1.358 0-0.079-0.005-0.156-0.014-0.233l0.001 0.009-0.28-2.432c-0.115-0.966-0.93-1.708-1.918-1.708-0.001 0-0.002 0-0.002 0h-1.669c-1.091 0-1.997 0.907-1.929 1.997 0.511 8.24 7.101 14.821 15.332 15.333 1.091 0.067 1.997-0.84 1.997-1.931v-1.669c0-0.003 0-0.007 0-0.011 0-0.981-0.739-1.789-1.69-1.899l-0.009-0.001z"></path>
     </symbol>
     <symbol id="icon-icon44" viewBox="0 0 24 32">
      <path d="M20 8h-16c-1.1 0-1.989 0.9-1.989 2l-0.011 12c0 1.1 0.9 2 2 2h16c1.1 0 2-0.9 2-2v-12c0-1.1-0.9-2-2-2zM19.6 12.251l-7.069 4.419c-0.151 0.094-0.334 0.15-0.531 0.15s-0.38-0.056-0.535-0.153l0.004 0.002-7.069-4.419c-0.252-0.15-0.418-0.422-0.418-0.731 0-0.469 0.38-0.849 0.849-0.849 0.174 0 0.337 0.053 0.471 0.143l6.697 4.187 6.7-4.191c0.132-0.088 0.294-0.141 0.468-0.141 0.469 0 0.849 0.38 0.849 0.849 0 0.31-0.166 0.581-0.414 0.729l-0.004 0.002z"></path>
     </symbol>
     <symbol id="icon-icon45" viewBox="0 0 40 32">
      <path d="M33.784 1.020c0.659-0.637 1.558-1.030 2.548-1.030 2.007 0 3.637 1.611 3.668 3.611l0 0.003c0.001 0.028 0.001 0.061 0.001 0.095 0 0.965-0.368 1.844-0.972 2.504l0.003-0.003-19.576 24.616c-0.674 0.728-1.635 1.182-2.702 1.182-0.495 0-0.967-0.098-1.398-0.275l0.024 0.009c-0.477-0.197-0.884-0.473-1.224-0.816l-0-0-12.984-13.052c-0.724-0.677-1.175-1.638-1.175-2.705 0-0.501 0.1-0.98 0.28-1.416l-0.009 0.025c0.564-1.367 1.887-2.312 3.43-2.312 0.018 0 0.035 0 0.053 0l-0.003-0c1.038 0.019 1.967 0.467 2.622 1.174l0.002 0.002 10.276 10.328 17.040-21.832c0.032-0.039 0.065-0.074 0.1-0.108l-0.004-0z"></path>
     </symbol>
     <symbol id="icon-icon51" viewBox="0 0 32 32">
      <path fill="#fff" style="fill: var(--color3, #fff)" d="M32 2.667l-32 15 10.227 3.156 15.773-12.323-11.997 13.488 0.009 0.004-0.012-0.004v7.345l5.735-5.576 7.267 2.243 4.999-23.333z"></path>
     </symbol>
  </defs>
</svg>
